<?xml version="1.0"?>
<svg xmlns="http://www.w3.org/2000/svg" version="1.2" baseProfile="tiny" width="800" height="754" viewBox="0 0 800 754" stroke-linecap="round" stroke-linejoin="round">
<g id="India_AC">
<path d="M 798.17 1.38 795 5.46 790.8 9.23 790.72 13.07 791.27 13.75 794.51 17.03 794.38 20.06 799 22.67 797.76 25.95 795.19 28.05 792.62 27.14 785.43 28.98 783.99 29.26 781.68 27.71 779.92 28.51 778.63 32.78 775.39 33.65 774.47 34.04 770.81 36.78 768.84 36.49 764.98 39.36 760.81 40.98 759.44 40.14 756.92 40.64 754.63 43.42 753.51 45.4 751.62 46.43 750.13 47.6 746.16 48.07 744.91 49.57 739.14 52.31 738.67 55.54 735.64 58.16 734.32 55.26 731.52 57.1 729.81 62.36 725.5 66.06 723.58 69.67 722.01 76.64 722.89 78.2 722.05 79.17 719.01 81.46 715.32 81.11 715.3 76.64 713.61 78.37 711.76 79.31 712.46 81.07 710.07 82.62 705.25 87.74 702.07 89.36 698.41 92.76 701.14 96.22 703.23 96.95 703.71 101.72 700.33 104.19 698.49 109.72 695.9 111.39 695.39 114.25 695.33 116.47 692.56 121.04 690.14 120.8 689.56 125.98 689.25 129.4 686.26 135.47 681.72 135.98 679.24 136.41 677 131.34 674.02 137.93 671.65 138.5 671.28 141.44 668.96 141.69 668.16 144.27 665.74 145.89 663.98 143.74 664.13 141.4 661.23 141.45 659.48 141.49 657.18 139.24 657.84 135.2 656.86 132.05 656.87 124.68 658.12 123.87 658.15 123.36 658.73 121.11 656.96 118.3 658.82 116.71 661.78 117.77 663.82 118.41 666.89 117.99 666.34 115.83 663.9 113.97 664.11 112.11 666.35 109.23 668.53 109.52 676.22 105.44 678.1 102.57 677.69 100.67 673.6 97.61 669.78 95.66 673.15 91.62 670.21 92.45 669.08 90.02 666.5 88.82 664.43 85.58 662.08 85.03 654.06 87.85 653.97 86.53 653.77 84.07 654.86 80.27 654.38 76.57 658.49 72.98 654.79 72.53 652.99 73.75 644.31 74.59 643.58 71.79 641.35 71.09 638.01 73.22 637.59 77.21 634.46 78.46 634.37 75.01 631.94 74.5 629.94 77.37 628.43 80.83 624.81 81.3 623.31 81.64 620.09 84.99 617.1 83.86 618.08 81.38 610.43 82.09 611.52 79.78 608.74 77.88 602.63 77.77 599.71 77.17 596.17 79.32 595.29 77.3 592.01 79.35 592.76 77 590.63 74.98 585.17 75.96 580.64 77.26 577.1 77.05 576.86 77.21 574.96 78.84 573.49 80.43 571.06 83.66 570.77 84.43 568.67 85.66 570.73 88.47 573.67 90.38 571.64 91.52 568.12 92.36 567.69 94.95 567.06 95.22 568.17 89.89 566.07 85.27 566.57 84.29 566.29 80.34 567.96 78.26 565.73 74.84 564.51 73.46 562.12 69.14 562.33 68.93 562.35 68.9 562.39 68.89 562.41 68.89 562.6 68.91 562.52 68.78 562.34 68.75 561.61 68.91 561.45 68.77 561.39 68.61 561.36 68.5 561.34 68.46 561.22 68.26 561.24 68.25 561.85 68.31 561.92 68.26 562.02 68.03 561.83 67.73 561.94 67.68 562.06 67.67 562.14 67.67 562.16 67.68 562.2 67.69 562.23 67.69 562.3 67.67 562.31 67.67 562.49 67.52 562.48 67.32 562.37 67.28 562.36 67.28 562.12 67.28 561.4 67.39 561.28 67.22 561.42 67.22 561.78 66.89 562 66.72 562.05 66.7 562.12 66.68 562.3 66.32 561.87 65.72 561.43 65.78 561.4 65.76 561.38 65.75 561.7 65.24 561.71 65.24 561.82 65.28 561.83 65.65 561.92 65.68 561.98 65.72 562.01 65.73 562.05 65.74 562.06 65.74 562.19 65.74 562.21 65.73 562.27 65.72 562.33 65.72 562.61 65.59 562.72 65.23 562.71 65.2 561.95 64.3 562.16 63.79 562.39 64.38 562.56 64.41 562.61 64.42 562.69 64.41 562.7 64.41 562.79 64.36 562.8 64.36 562.82 64.35 562.87 64.34 563.06 64.45 563.11 64.47 563.12 64.48 563.14 64.5 563.18 64.51 563.25 64.54 563.26 64.54 563.32 64.55 563.32 64.56 563.41 64.56 563.41 64.57 563.45 64.59 563.45 64.54 563.47 64.53 563.5 64.52 563.52 64.52 563.53 64.49 563.54 64.47 563.55 64.43 563.55 64.42 563.53 64.38 563.44 64.21 563.31 64.06 563.3 64.03 563.3 64 563.26 63.83 563.25 63.78 563.24 63.69 563.23 63.68 563.22 63.59 563.22 63.54 563.19 63.34 563.29 63.27 563.37 63.27 563.46 63.4 563.46 63.42 563.47 63.43 563.53 63.5 563.54 63.51 563.62 63.52 563.63 63.52 563.68 63.52 563.82 63.4 563.86 63.31 563.91 63.2 564.01 63.18 564.15 63.15 564.21 63.13 564.26 63.11 564.35 63.05 564.38 63.02 564.41 62.97 564.42 62.92 564.42 62.87 564.41 62.81 564.34 62.56 564.38 62.28 564.4 62.2 564.41 62.18 564.48 62.12 564.71 61.95 564.75 61.93 564.77 61.92 564.82 61.9 564.86 61.89 565.03 61.85 565.16 61.79 565.26 61.74 565.32 61.69 565.35 61.66 565.41 61.59 565.44 61.55 565.57 61.45 565.63 61.44 565.66 61.44 565.69 61.45 565.79 61.46 565.85 61.42 565.87 61.41 565.87 61.43 565.85 61.55 565.83 61.57 565.74 61.66 565.73 61.66 565.7 61.68 565.62 61.71 565.59 61.77 565.53 61.86 565.53 61.92 565.53 61.94 565.53 61.98 565.56 62.02 565.6 62.07 565.61 62.1 565.63 62.13 565.65 62.14 565.71 62.15 565.76 62.16 565.81 62.19 565.82 62.19 565.86 62.19 565.97 62.12 565.98 62.1 566 62.02 565.94 61.96 565.87 61.84 565.88 61.75 565.92 61.71 565.94 61.69 565.95 61.69 566.04 61.64 566.09 61.63 566.09 61.62 566.12 61.43 566.12 61.42 566.08 61.35 566.07 61.33 566.08 61.29 566.07 61.27 566.02 61.21 566.03 61.19 566.05 61.16 566.06 61.15 566.09 61.08 566.13 61.05 566.28 60.96 566.35 60.96 566.36 60.96 566.39 60.98 566.42 61.04 566.43 61.06 566.44 61.08 566.46 61.09 566.5 61.14 566.51 61.15 566.59 61.18 566.64 61.19 566.69 61.19 566.71 61.17 566.73 61.03 566.74 61.01 566.95 60.91 567 60.92 567.1 61.03 567.23 60.99 567.24 60.98 567.25 60.96 567.22 60.9 567.19 60.85 567.15 60.74 567.14 60.71 567.14 60.67 567.18 60.56 567.21 60.53 567.16 60.46 567.14 60.45 567.1 60.44 567.06 60.36 567.06 60.35 567.02 60.34 566.99 60.3 566.98 60.27 566.94 60.24 566.94 60.23 566.93 60.23 566.89 60.21 566.85 60.21 566.83 60.32 566.82 60.39 566.78 60.47 566.67 60.59 566.51 60.68 566.4 60.7 566.36 60.7 566.28 60.67 566.22 60.63 566.18 60.59 566.18 60.56 566.18 60.51 566.17 60.47 566.17 60.46 566.19 60.42 566.22 60.38 566.27 60.33 566.25 60.28 566.27 60.23 566.28 60.16 566.29 60.06 566.29 60.04 566.35 59.94 566.38 59.9 566.39 59.9 566.58 59.92 566.74 59.92 566.78 59.91 566.89 59.88 566.91 59.88 566.96 59.88 567.04 59.88 567.06 59.89 567.1 59.91 567.21 59.91 567.21 59.87 567.16 59.77 567.13 59.75 567.11 59.74 567.09 59.73 567.03 59.69 566.92 59.59 566.92 59.49 566.96 59.5 566.98 59.5 567.05 59.47 567.12 59.44 567.15 59.42 567.16 59.15 567.15 59.13 567.2 59.09 567.27 58.99 567.26 58.97 567.24 58.91 567.24 58.89 567.25 58.88 567.28 58.82 567.29 58.82 567.32 58.78 567.33 58.78 567.36 58.75 567.45 58.63 567.46 58.59 567.54 58.57 567.57 58.54 567.65 58.49 567.73 58.44 567.75 58.42 567.76 58.37 567.71 58.25 567.7 58.21 567.76 58.06 567.78 58.02 567.73 57.85 567.68 57.8 567.6 57.78 567.53 57.78 567.52 57.78 567.48 57.68 567.47 57.6 567.47 57.58 567.46 57.56 567.43 57.49 567.39 57.38 567.37 57.26 567.39 57.22 567.24 57.16 567.18 57.14 567.15 57.13 567.13 57.09 567.1 57.05 567.09 57.03 567.08 56.99 567.09 56.87 567.15 56.78 567.17 56.76 567.22 56.57 567.23 56.37 567.29 48.87 568.52 48.09 574.49 47.87 577.22 47.18 579.95 46.25 581.31 43.02 585.2 42.78 588.63 41.53 593.23 44.61 597.64 45.98 599.69 46.45 608.17 45.89 611.17 45.86 615.39 44.93 619.37 44.92 621.56 45.82 623.76 45.76 626.87 44.58 629.03 45.65 633.97 44.46 637 44.82 640.7 43.3 642.91 40.96 644.3 40.88 649.44 43.41 652.24 41.73 655.52 41.84 661.94 40.25 665.7 39.18 671.26 38.75 672.58 37.14 677.24 36.44 681.7 37.71 685.14 40.05 686.79 40.96 691.86 40.21 698.16 39.2 700.99 39.31 704.3 39.89 710.84 38.95 712.31 37.91 717.11 35.31 717.51 33.76 716.38 31.97 723.12 25.5 726.77 22.72 732.07 18.67 733.83 18.02 731.62 14.74 737.47 16 739.51 15.11 742.55 16.07 748.23 13.53 752.21 12.72 756.59 9.99 765.36 7.28 773.16 4.9 775.83 5.99 779.31 4.93 780.91 4.47 782.92 2.38 784.34 1.62 792.5 1 798.17 1.38 Z" id="S03"/>
<path d="M 5.98 574.45 5.45 576.32 7.89 577.42 11.5 580.4 14.38 582.82 16.46 581.07 16.48 584.51 17.81 585.54 18.98 586.89 21.65 585.44 19.95 587.82 21.43 591.27 21.58 593.31 24.55 594.01 27.72 598.41 29.94 598.73 32.93 601.71 36.18 602.99 38.82 606.17 41.45 606.5 43.81 606.96 47.95 605.16 48.28 610 51.54 609.59 54.28 611.49 56.52 614.23 59.34 613.48 59.98 616.97 57.97 619.41 53.71 619.71 52.54 620.67 52.68 622.22 53.69 623.98 57.73 624.98 63.24 628.19 64.47 629.62 63.42 631.87 60.7 634.1 60.42 634.44 67.47 634.82 70.4 633.15 69.87 635.64 71.94 637.7 73.93 640.06 70.56 640.67 68.61 644.77 74.4 646.8 75.83 648.99 77.86 650.74 76.89 654.55 74.47 655.91 75.39 657.37 74.54 663.92 75.34 667.16 77.74 670.41 80.82 671.6 83.4 670 85 668.16 88.15 666.4 92.36 671.17 91.55 675.32 89.08 675.9 91.37 679.1 91.34 681.72 89.75 683.52 89.89 689.91 88.3 692.84 90.34 695.74 93.77 695.77 96.68 697.86 97.02 698.53 94.29 701.83 93.76 704.97 92.13 707.39 91.71 710.06 91.58 711.88 89.33 714.98 87.02 716.87 89.73 720.79 91.16 722.3 91.39 723.68 89.03 726.39 88.4 728.4 90.77 732.19 91.64 733.61 91.37 736.35 89.55 737.7 87.55 741.35 88.17 743.16 87.09 742.93 85.18 744.43 84.56 743.98 80.38 740.28 78.92 738.28 78.03 737.26 76.02 734.76 71.49 729.17 69.13 725.95 68.09 724.57 66.03 722.41 64.65 721.7 63.22 717.03 62.02 714.3 61.32 712.83 58.23 706.09 55.73 699.04 54.86 693.62 54.18 687.89 52.78 680.89 52.04 679.97 50.02 673.04 47.87 666.68 46.24 662.7 45.71 661.69 42.06 653.99 40.41 650.23 39.69 647.15 39.32 645.45 38.35 641.45 37.71 639.03 37.13 637.44 35.6 634.23 35.07 632.7 34.32 630.47 33.58 628.69 31.64 625.11 29.29 623.73 28.24 620.92 26.2 615.93 26.49 615.53 25.97 615.55 23.73 613.04 22.28 611.57 19.28 609.24 17.44 606.29 14.54 603.5 12.15 600.92 9.85 595.21 7.88 590.58 5.62 586.73 5 582.8 4.18 583.27 1 575.63 5.98 574.45 Z" id="S11"/>
<path d="M 204.95 545.26 207.13 549.78 207.92 554.75 207.35 557.69 206.19 561.19 206.18 562.01 206.08 562.74 205.63 564.31 205.51 564.86 205.3 566.09 204.9 567.52 204.24 571.98 204.44 574.87 201.06 584.5 200.02 588.86 194.98 595.01 190.05 602.76 189.1 602.51 189.42 604.11 188.73 606.03 188.39 605.97 188.33 605.93 187.46 605.74 187.38 606.14 186.12 606.48 185.79 607.07 185.34 607.03 183.48 605.78 183.78 606.48 184.79 607.7 182.92 608.87 183.84 608.76 185.64 609.35 186.13 609.11 187.55 610.55 187.52 610.66 184.6 610.53 187.1 612.47 186.39 615.7 185.64 620.72 187.75 626.13 189.34 635.14 189.31 642.78 185.3 642.28 185.85 643.58 185.18 645.37 185.8 645.44 186.39 645.72 187.08 645.82 188.82 648.64 189.19 651.4 189.48 658.99 189.6 669.23 183.87 669.43 174.88 668 170.76 668.87 167.12 671.27 165.62 674.76 166.69 678.22 161.91 683.89 161.32 685.71 156.29 691.65 154.27 695.6 154.15 701.6 156.36 704.09 159.55 706.45 152.34 707.98 146.79 709.78 144.09 711.75 134.94 713.39 133.81 714.14 127.57 719 126.25 721.09 125.55 724.27 125.3 728.42 124.47 730.8 124.67 736.53 119.51 742.04 118.26 742.73 113.26 745.97 111.46 749.35 103.76 750.18 102.48 752.59 97.03 751.57 94.22 750.73 92.97 750.32 90.07 748.3 85.18 744.43 87.09 742.93 88.17 743.16 87.55 741.35 89.55 737.7 91.37 736.35 91.64 733.61 90.77 732.19 88.4 728.4 89.03 726.39 91.39 723.68 91.16 722.3 89.73 720.79 87.02 716.87 89.33 714.98 91.58 711.88 91.71 710.06 92.13 707.39 93.76 704.97 94.29 701.83 97.02 698.53 96.68 697.86 93.77 695.77 90.34 695.74 88.3 692.84 89.89 689.91 89.75 683.52 91.34 681.72 91.37 679.1 89.08 675.9 91.55 675.32 92.36 671.17 88.15 666.4 85 668.16 83.4 670 80.82 671.6 77.74 670.41 75.34 667.16 74.54 663.92 75.39 657.37 74.47 655.91 76.89 654.55 77.86 650.74 75.83 648.99 74.4 646.8 68.61 644.77 70.56 640.67 73.93 640.06 71.94 637.7 69.87 635.64 70.4 633.15 67.47 634.82 60.42 634.44 60.7 634.1 63.42 631.87 64.47 629.62 63.24 628.19 57.73 624.98 53.69 623.98 52.68 622.22 52.54 620.67 53.71 619.71 57.97 619.41 59.98 616.97 63.03 615.51 64.91 618.24 66.89 619.17 72 618.9 75.69 619.66 75.64 616.68 77.97 612.1 80.33 612.81 81.96 611.37 84.59 614.19 88.61 612.22 92.58 611.58 94.14 613.01 97.62 613.4 99.11 610.14 98.92 608.14 101.8 606.92 107 606.18 107.01 606.18 108.26 603 110.71 599.81 109.67 598.42 104.5 596.58 101.07 597.02 99.36 595.19 102.31 593.36 104.78 590.46 105.46 585.97 103.44 583.56 104.03 579.51 107.1 579.41 110.16 578.03 113.05 571.45 114.22 571.59 116.31 570.96 119.58 573.89 122.5 572.93 124.33 574.83 127.97 575.62 130.69 579.2 134.85 580.69 137.17 579.91 140.23 577.95 140.54 576.59 142.05 572.53 143.19 569.2 142.71 566.92 145.88 565.97 146.2 563.98 149.27 564.07 150 563.23 152.84 563.82 157.28 563.47 160.25 565.56 163.08 565.82 165.14 560.68 167.76 561.95 173.37 559.17 172.08 554.11 175.27 553.72 177.25 556.2 181.66 555.56 182.88 557.4 185.82 554.56 187.2 555.3 192.36 553.24 193.77 548.87 196.25 546.23 201.7 548.08 203.98 548.8 204.95 545.26 Z M 180.4 605.48 180.79 605.99 180.78 606.44 180.68 607.92 181.51 606.46 180.5 603.98 180.4 605.48 Z M 182.88 611.44 182.53 611.67 182.79 612.04 182.88 611.44 Z M 186.89 608.25 187.13 608.34 186.23 609.06 186.18 608.04 186.89 608.25 Z" fill-rule="evenodd" id="S22"/>
<path d="M 536.78 60.41 532.98 59.03 532.07 61.68 534.33 62.3 535.86 64.77 533.05 66.33 532.04 64.74 525.64 63.75 523.27 62.4 520.15 57.67 516.93 57.27 513.54 54.9 512.5 51.47 509.71 56.7 515.79 58.95 516.85 61.8 513.8 61.86 510.25 64.81 510.32 67.08 504.48 69.29 503.62 70.61 503.79 74.66 502.34 74.96 500.45 78.34 500.9 81.88 502.96 83.82 506.85 82.51 509.05 85.19 512.22 87.83 513.87 90.7 518.72 94.02 523.77 94.36 527.55 93.86 528.75 95.92 528.16 98.1 530.31 100.81 532.12 101.55 533.08 103.69 532.26 106.41 528.41 105.5 525.71 106.21 520.27 105.56 513.62 105.39 514.12 111.9 511.65 115.55 509.88 115.53 508.48 118.09 504.63 114.87 503.27 115.37 503.31 118.41 501.26 120.29 497.41 125.75 498.46 126.63 500.49 129.71 505.39 133.8 509.66 136.62 511.78 136.97 513.3 136.53 517.19 138.44 518.17 139.51 523.35 139.11 525.03 141.43 523.53 144.66 523.49 147.46 525.08 149.76 524.75 154.39 522.36 155.41 519.37 156.56 518.47 162.34 518.15 164.2 521.42 165.78 523.37 169.3 526.59 172.13 524.89 175.75 525.44 179.72 527.48 180.54 531.31 179.89 532.64 181.01 531.72 183.93 529.88 185.07 530.1 187.98 529.42 190.07 530.98 192.65 533.63 194.68 531.46 197.92 532.11 199.44 532.74 205.52 534.67 208.86 534.24 214.23 535.75 215.35 537.43 219.73 536.27 222.86 537.66 226.05 537.43 229.12 535.86 229.46 535.87 234.59 540.3 239.85 539.95 242.21 529.91 244.26 521.01 243.57 517.01 244.43 513.44 243.7 509.65 243.85 505.69 246.09 496.73 244.98 493.34 238.41 496.96 233.49 493.56 234.1 490.02 237.24 486.87 238.6 485.68 239.38 477.54 241.2 476.42 236.41 475.9 235.27 471.46 234.48 471.33 234.49 469.24 233.44 468.79 231.21 468.78 231.19 467.79 228.18 463.24 229.49 462.96 231.63 460.58 231.53 459.26 229.84 460.26 225.19 457.97 223.37 452.38 222.18 452.31 222.15 448.82 221.04 448.79 221.04 448.67 221.01 448.87 218.33 451.02 217.63 451.25 217.83 452.62 216.51 453.64 216.55 453.89 216.79 455.01 215.34 453.24 214.56 453.42 211.47 450.38 210.46 451.46 208.54 450.41 204.84 446.14 204.2 446.09 204.18 446.07 204.17 445.4 203.49 445.42 203.46 445.69 201.67 442.58 199.73 438.38 197.72 438.35 197.7 437.22 196.77 437.22 196.73 438.52 194.01 437.94 191.63 440.42 189 430.48 188.95 430.46 189 429.96 189.04 427.81 187.71 425.92 185.58 424.88 185.43 424.85 185.24 424.34 185.25 422.9 183.25 417.48 182.92 414.68 178.67 416.49 176.35 416.31 172.5 417.21 170.49 417.22 170.5 419.55 171.02 419.66 171.02 419.69 171.02 422.4 170.42 423.24 166.68 423.27 166.68 423.29 166.68 426.92 167.51 427.26 170.7 427.32 170.78 430.14 172.02 430.29 171.34 430.31 171.34 432.91 173.2 434.99 171.36 435.37 168.39 438.37 165.43 438.39 165.41 439.45 164.88 439.5 164.85 444.01 163.39 444.03 163.38 444.64 163.3 444.65 163.3 444.7 163.3 447.63 162.67 447.82 162.6 451.9 162.49 452.51 159.23 451.72 157.32 451.72 157.3 455.15 155.81 455.16 155.8 455.95 155.49 455.96 155.5 461.34 157.73 462.54 158.25 464.91 158.7 466.09 156.59 468.92 156.93 470.25 155.02 468.07 150.12 468.91 149.45 468.96 149.49 468.96 149.5 472 149.74 476.64 151.59 478.6 149.59 478.51 149.2 477.9 148.98 478.06 148.66 480.87 147.66 481.24 145.19 485.49 145.34 485.71 144.36 485.51 143.98 483.42 141.41 485.15 141.71 488.03 139.37 489.53 136.52 490.06 132.07 488.42 129.02 488.43 128.98 492.92 129.67 493.68 128.19 493.69 128.06 493.71 126.27 493.56 123.77 490.83 122.78 493.15 118.66 495.04 116.91 495.07 116.87 494.15 113.24 493.47 113.23 493.11 112.84 489.29 109.93 488.48 104.88 490.97 105.62 490.98 105.63 491.73 102.98 488.98 100.45 488.12 97.87 492.12 94.48 493.39 94.16 493.62 93.58 495.03 92.88 495.07 92.87 499.81 94.97 498.38 92.55 499.12 89.19 498.8 86.83 493.54 84.04 492.97 80.57 490.33 79.98 490.32 78.78 489.76 78.16 489.76 78.15 489.76 78.14 490.23 77.98 490.27 77.99 491.89 74.11 493.81 72.6 493.89 72.61 496.46 72.49 496.42 72.48 496.1 70.05 496.15 70.05 496.22 70.04 499.93 68.73 500.49 67.83 501.38 67.01 502.36 66.86 502.22 66.37 502.5 65.94 504.5 65.2 505 64.98 508.09 62.19 506.25 58.32 505.57 58.34 505.55 58.33 500.95 55.08 503.22 50.54 503.74 45.09 502.5 40.65 499.97 36.33 496.67 33.58 497.58 29.68 499.96 30.33 499.94 30.34 499.93 30.35 500.69 32.67 503.87 32.67 503.88 32.66 503.89 32.66 507.59 32.7 508.95 32.92 508.96 32.92 509.28 33.52 510.14 33.7 510.15 33.72 510.16 33.73 513.51 34.65 514.73 33.34 514.74 33.34 514.75 33.32 517.19 31.09 517.21 31.05 517.93 30.76 517.97 30.74 522.05 31.61 522.06 31.6 522.07 31.6 523.98 31.57 524.02 31.59 525.23 32.3 529.88 33.49 530 39.05 531.85 37.94 534.08 40.83 538.45 41.79 538.66 43.64 539.91 44.96 544.73 44.71 547.21 43.6 551.4 43.72 559.41 46.14 558.16 47.97 560.17 47.55 567.29 48.87 567.23 56.37 567.22 56.57 567.17 56.76 567.15 56.78 567.09 56.87 567.08 56.99 567.09 57.03 567.1 57.05 567.13 57.09 567.15 57.13 567.18 57.14 567.24 57.16 567.39 57.22 567.37 57.26 567.39 57.38 567.43 57.49 567.46 57.56 567.47 57.58 567.47 57.6 567.48 57.68 567.52 57.78 567.53 57.78 567.6 57.78 567.68 57.8 567.73 57.85 567.78 58.02 567.76 58.06 567.7 58.21 567.71 58.25 567.76 58.37 567.75 58.42 567.73 58.44 567.65 58.49 567.57 58.54 567.54 58.57 567.46 58.59 567.45 58.63 567.36 58.75 567.33 58.78 567.32 58.78 567.29 58.82 567.28 58.82 567.25 58.88 567.24 58.89 567.24 58.91 567.26 58.97 567.27 58.99 567.2 59.09 567.15 59.13 567.16 59.15 567.15 59.42 567.12 59.44 567.05 59.47 566.98 59.5 566.96 59.5 566.92 59.49 566.92 59.59 567.03 59.69 567.09 59.73 567.11 59.74 567.13 59.75 567.16 59.77 567.21 59.87 567.21 59.91 567.1 59.91 567.06 59.89 567.04 59.88 566.96 59.88 566.91 59.88 566.89 59.88 566.78 59.91 566.74 59.92 566.58 59.92 566.39 59.9 566.38 59.9 566.35 59.94 566.29 60.04 566.29 60.06 566.28 60.16 566.27 60.23 566.25 60.28 566.27 60.33 566.22 60.38 566.19 60.42 566.17 60.46 566.17 60.47 566.18 60.51 566.18 60.56 566.18 60.59 566.22 60.63 566.28 60.67 566.36 60.7 566.4 60.7 566.51 60.68 566.67 60.59 566.78 60.47 566.82 60.39 566.83 60.32 566.85 60.21 566.89 60.21 566.93 60.23 566.94 60.23 566.94 60.24 566.98 60.27 566.99 60.3 567.02 60.34 567.06 60.35 567.06 60.36 567.1 60.44 567.14 60.45 567.16 60.46 567.21 60.53 567.18 60.56 567.14 60.67 567.14 60.71 567.15 60.74 567.19 60.85 567.22 60.9 567.25 60.96 567.24 60.98 567.23 60.99 567.1 61.03 567 60.92 566.95 60.91 566.74 61.01 566.73 61.03 566.71 61.17 566.69 61.19 566.64 61.19 566.59 61.18 566.51 61.15 566.5 61.14 566.46 61.09 566.44 61.08 566.43 61.06 566.42 61.04 566.39 60.98 566.36 60.96 566.35 60.96 566.28 60.96 566.13 61.05 566.09 61.08 566.06 61.15 566.05 61.16 566.03 61.19 566.02 61.21 566.07 61.27 566.08 61.29 566.07 61.33 566.08 61.35 566.12 61.42 566.12 61.43 566.09 61.62 566.09 61.63 566.04 61.64 565.95 61.69 565.94 61.69 565.92 61.71 565.88 61.75 565.87 61.84 565.94 61.96 566 62.02 565.98 62.1 565.97 62.12 565.86 62.19 565.82 62.19 565.81 62.19 565.76 62.16 565.71 62.15 565.65 62.14 565.63 62.13 565.61 62.1 565.6 62.07 565.56 62.02 565.53 61.98 565.53 61.94 565.53 61.92 565.53 61.86 565.59 61.77 565.62 61.71 565.7 61.68 565.73 61.66 565.74 61.66 565.83 61.57 565.85 61.55 565.87 61.43 565.87 61.41 565.85 61.42 565.79 61.46 565.69 61.45 565.66 61.44 565.63 61.44 565.57 61.45 565.44 61.55 565.41 61.59 565.35 61.66 565.32 61.69 565.26 61.74 565.16 61.79 565.03 61.85 564.86 61.89 564.82 61.9 564.77 61.92 564.75 61.93 564.71 61.95 564.48 62.12 564.41 62.18 564.4 62.2 564.38 62.28 564.34 62.56 564.41 62.81 564.42 62.87 564.42 62.92 564.41 62.97 564.38 63.02 564.35 63.05 564.26 63.11 564.21 63.13 564.15 63.15 564.01 63.18 563.91 63.2 563.86 63.31 563.82 63.4 563.63 63.52 563.62 63.52 563.54 63.51 563.53 63.5 563.47 63.43 563.46 63.42 563.46 63.4 563.37 63.27 563.29 63.27 563.19 63.34 563.22 63.54 563.22 63.59 563.23 63.68 563.24 63.69 563.25 63.78 563.26 63.83 563.3 64 563.3 64.03 563.31 64.06 563.44 64.21 563.53 64.38 563.55 64.42 563.55 64.43 563.54 64.47 563.53 64.49 563.52 64.52 563.5 64.52 563.47 64.53 563.45 64.54 563.45 64.59 563.41 64.57 563.41 64.56 563.32 64.56 563.32 64.55 563.26 64.54 563.25 64.54 563.18 64.51 563.14 64.5 563.12 64.48 563.11 64.47 563.06 64.45 562.87 64.34 562.82 64.35 562.8 64.36 562.79 64.36 562.7 64.41 562.69 64.41 562.61 64.42 562.56 64.41 562.39 64.38 562.16 63.79 561.94 64.3 562.71 65.2 562.72 65.23 562.61 65.59 562.33 65.72 562.27 65.72 562.21 65.73 562.19 65.74 562.06 65.74 562.05 65.74 562.01 65.73 561.98 65.72 561.92 65.68 561.83 65.65 561.82 65.28 561.71 65.24 561.7 65.24 561.38 65.75 561.4 65.76 561.43 65.78 561.87 65.72 562.3 66.32 562.12 66.68 562.05 66.7 562 66.72 561.78 66.89 561.42 67.22 561.28 67.22 561.4 67.39 562.12 67.28 562.36 67.28 562.37 67.28 562.48 67.32 562.49 67.52 562.31 67.67 562.3 67.67 562.23 67.69 562.2 67.69 562.16 67.68 562.14 67.67 562.06 67.67 561.94 67.68 561.83 67.73 562.02 68.03 561.92 68.26 561.85 68.31 561.24 68.25 561.22 68.26 561.34 68.46 561.36 68.5 561.39 68.61 561.45 68.77 561.61 68.91 562.34 68.75 562.52 68.78 562.6 68.91 562.41 68.89 562.39 68.89 562.35 68.9 562.33 68.93 562.12 69.14 560.57 69.29 560.53 66.74 558.79 66.91 557.42 69.66 559.32 72.89 553.8 75.37 550.22 73.9 548.59 75.16 544.62 71.95 540.69 70.23 539.84 64.18 536.78 60.41 Z" id="S25"/>
<path d="M 180.79 605.99 180.4 605.48 180.5 603.98 181.51 606.46 180.68 607.92 180.78 606.44 180.79 605.99 Z M 185.79 607.07 186.12 606.48 187.38 606.14 187.46 605.74 188.33 605.93 188.39 605.97 188.73 606.03 188.71 606.35 188.58 607.12 188.46 607.51 188.2 608.53 187.55 610.55 186.13 609.11 185.64 609.35 183.84 608.76 182.92 608.87 184.79 607.7 183.78 606.48 183.48 605.78 185.34 607.03 185.79 607.07 Z M 186.89 608.25 186.18 608.04 186.23 609.06 187.13 608.34 186.89 608.25 Z M 189.1 602.51 190.05 602.76 189.42 604.11 189.1 602.51 Z M 182.53 611.67 182.88 611.44 182.79 612.04 182.53 611.67 Z M 184.6 610.53 187.52 610.66 187.28 611.55 187.1 612.47 184.6 610.53 Z M 25.97 615.55 26.49 615.53 26.2 615.93 25.97 615.55 Z M 185.3 642.28 189.31 642.78 189.31 643.48 189.25 645.04 189.27 645.35 188.82 648.64 187.08 645.82 186.39 645.72 185.8 645.44 185.18 645.37 185.85 643.58 185.3 642.28 Z" fill-rule="evenodd" id="S26"/>
</g>
</svg>